<?xml version="1.0" encoding="utf-8"?>
<!-- Generator: Adobe Illustrator 26.0.2, SVG Export Plug-In . SVG Version: 6.00 Build 0)  -->
<svg version="1.1" id="Слой_1" xmlns="http://www.w3.org/2000/svg" xmlns:xlink="http://www.w3.org/1999/xlink" x="0px" y="0px"
	 viewBox="0 0 512 512" style="enable-background:new 0 0 512 512;" xml:space="preserve">
<style type="text/css">
	.st0{fill:#4D47C9;}
	.st1{fill:#FFFFFF;}
	.st2{opacity:0.15;fill:#FFFFFF;}
</style>
<g>
	<path class="st0" d="M405.12,514H106.88C47.85,514,0,466.15,0,407.12V108.88C0,49.85,47.85,2,106.88,2h298.23
		C464.15,2,512,49.85,512,108.88v298.23C512,466.15,464.15,514,405.12,514z"/>
</g>
<path class="st1" d="M280.75,334.25L280.75,334.25c-14.22,14.22-37.28,14.22-51.5,0l-100.5-100.5c-14.22-14.22-14.22-37.28,0-51.5
	l0,0c14.22-14.22,37.28-14.22,51.5,0l100.5,100.5C294.97,296.97,294.97,320.03,280.75,334.25z"/>
<path class="st1" d="M471.43,83.69L471.43,83.69c14.5,13.94,14.95,36.99,1.02,51.49l-190.6,198.28
	c-13.94,14.5-36.99,14.95-51.49,1.02l0,0c-14.5-13.94-14.95-36.99-1.02-51.49L419.94,84.7C433.88,70.2,456.93,69.75,471.43,83.69z"
	/>
<path class="st2" d="M460.01,108.02l22.65,21.77c14.5,13.94,14.95,36.99,1.02,51.49L310.1,361.85
	c-13.94,14.5-36.99,14.95-51.49,1.02l-22.65-21.77c-14.5-13.94-14.95-36.99-1.02-51.49l173.57-180.57
	C422.46,94.53,445.51,94.08,460.01,108.02z"/>
</svg>
